<svg width="19" height="18" viewBox="0 0 19 18" fill="none" xmlns="http://www.w3.org/2000/svg">
<path d="M17.1081 2.38971H3.90492L2.77681 0.367629C2.65018 0.140662 2.41064 0 2.15074 0H0.716912C0.320972 0 0 0.320972 0 0.716912C0 1.11285 0.320972 1.43382 0.716912 1.43382H1.72976L2.84307 3.42937L5.41064 9.1104L5.41328 9.1162L5.63942 9.61657L3.06156 12.3663C2.87621 12.564 2.81818 12.8493 2.9116 13.1037C3.00502 13.3581 3.23391 13.5381 3.50317 13.5689L5.85286 13.8374C8.79189 14.1733 11.7596 14.1733 14.6986 13.8374L17.0483 13.5689C17.4417 13.5239 17.7242 13.1686 17.6792 12.7752C17.6342 12.3818 17.2789 12.0994 16.8855 12.1443L14.5358 12.4129C11.705 12.7364 8.84651 12.7364 6.01567 12.4129L5.08318 12.3063L6.97524 10.2881C6.99354 10.2686 7.01054 10.2483 7.02623 10.2274L7.74584 10.321C8.75422 10.4522 9.77353 10.478 10.7872 10.3978C13.1516 10.2108 15.3429 9.08574 16.8727 7.27338L17.4253 6.61877C17.4439 6.59679 17.4611 6.57371 17.4769 6.54965L18.5067 4.98023C19.2367 3.86781 18.4387 2.38971 17.1081 2.38971Z" fill="#FD8B8B"/>
<path d="M5.01838 15.0551C4.22651 15.0551 3.58456 15.6971 3.58456 16.489C3.58456 17.2808 4.22651 17.9228 5.01838 17.9228C5.81026 17.9228 6.45221 17.2808 6.45221 16.489C6.45221 15.6971 5.81026 15.0551 5.01838 15.0551Z" fill="#FD8B8B"/>
<path d="M14.0993 16.489C14.0993 15.6971 14.7412 15.0551 15.5331 15.0551C16.325 15.0551 16.9669 15.6971 16.9669 16.489C16.9669 17.2808 16.325 17.9228 15.5331 17.9228C14.7412 17.9228 14.0993 17.2808 14.0993 16.489Z" fill="#FD8B8B"/>
</svg>
