<svg width="16" height="19" viewBox="0 0 16 19" fill="none" xmlns="http://www.w3.org/2000/svg">
<path fill-rule="evenodd" clip-rule="evenodd" d="M3.13734 4.56723V4.92079H1.70244C1.27496 4.92079 0.912158 5.23431 0.850186 5.65727L0.641159 7.08388C0.232976 9.86972 0.232976 12.7002 0.641159 15.486C0.824056 16.7343 1.83065 17.6993 3.08552 17.8295L3.68664 17.8918C6.34029 18.167 9.01527 18.167 11.6689 17.8918L12.27 17.8295C13.5249 17.6993 14.5315 16.7343 14.7144 15.486C15.1226 12.7002 15.1226 9.86973 14.7144 7.08388L14.5054 5.65727C14.4434 5.23431 14.0806 4.92079 13.6531 4.92079H12.2182V4.56724C12.2182 2.49513 10.8154 0.68589 8.80854 0.16985C8.06676 -0.0208909 7.2888 -0.0208909 6.54702 0.16985C4.5402 0.68589 3.13734 2.49512 3.13734 4.56723ZM8.45146 1.5585C7.94393 1.42799 7.41163 1.42799 6.90411 1.5585C5.53102 1.91158 4.57116 3.14948 4.57116 4.56723V4.92079H10.7844V4.56724C10.7844 3.14948 9.82454 1.91158 8.45146 1.5585ZM4.57116 6.35461C4.57116 5.95867 4.25019 5.6377 3.85425 5.6377C3.45831 5.6377 3.13734 5.95867 3.13734 6.35461V8.26638C3.13734 8.66232 3.45831 8.98329 3.85425 8.98329C4.25019 8.98329 4.57116 8.66232 4.57116 8.26638V6.35461ZM12.2182 6.35461C12.2182 5.95867 11.8972 5.6377 11.5013 5.6377C11.1054 5.6377 10.7844 5.95867 10.7844 6.35461V8.26638C10.7844 8.66232 11.1054 8.98329 11.5013 8.98329C11.8972 8.98329 12.2182 8.66232 12.2182 8.26638V6.35461Z" fill="#EC9D40"/>
</svg>
