<svg width="24" height="24" viewBox="0 0 24 24" fill="none" xmlns="http://www.w3.org/2000/svg">
<path d="M18.7174 5.66322H5.5142L4.38609 3.64114C4.25946 3.41418 4.01992 3.27351 3.76002 3.27351H2.3262C1.93026 3.27351 1.60928 3.59449 1.60928 3.99043C1.60928 4.38636 1.93026 4.70734 2.3262 4.70734H3.33905L4.45236 6.70289L7.01993 12.3839L7.02256 12.3897L7.24871 12.8901L4.67085 15.6398C4.48549 15.8375 4.42747 16.1229 4.52089 16.3773C4.61431 16.6317 4.8432 16.8116 5.11246 16.8424L7.46214 17.1109C10.4012 17.4468 13.3689 17.4468 16.3079 17.1109L18.6576 16.8424C19.051 16.7975 19.3334 16.4421 19.2885 16.0487C19.2435 15.6554 18.8882 15.3729 18.4948 15.4179L16.1451 15.6864C13.3143 16.0099 10.4558 16.0099 7.62495 15.6864L6.69247 15.5798L8.58452 13.5616C8.60282 13.5421 8.61982 13.5218 8.63552 13.5009L9.35512 13.5946C10.3635 13.7258 11.3828 13.7515 12.3965 13.6713C14.7609 13.4843 16.9522 12.3593 18.482 10.5469L19.0346 9.89228C19.0531 9.8703 19.0704 9.84722 19.0861 9.82317L20.116 8.25375C20.8459 7.14132 20.0479 5.66322 18.7174 5.66322Z" fill="#FD8B8B"/>
<path d="M6.62767 18.3287C5.83579 18.3287 5.19384 18.9706 5.19384 19.7625C5.19384 20.5544 5.83579 21.1963 6.62767 21.1963C7.41955 21.1963 8.06149 20.5544 8.06149 19.7625C8.06149 18.9706 7.41955 18.3287 6.62767 18.3287Z" fill="#FD8B8B"/>
<path d="M15.7086 19.7625C15.7086 18.9706 16.3505 18.3287 17.1424 18.3287C17.9343 18.3287 18.5762 18.9706 18.5762 19.7625C18.5762 20.5544 17.9343 21.1963 17.1424 21.1963C16.3505 21.1963 15.7086 20.5544 15.7086 19.7625Z" fill="#FD8B8B"/>
</svg>
