<svg width="22" height="22" viewBox="0 0 22 22" fill="none" xmlns="http://www.w3.org/2000/svg">
<path d="M19.3504 3.61401H4.48589L3.21584 1.3375C3.07328 1.08198 2.80359 0.923615 2.51099 0.923615H0.896749C0.45099 0.923615 0.0896301 1.28497 0.0896301 1.73073C0.0896301 2.17649 0.45099 2.53785 0.896749 2.53785H2.03705L3.29044 4.7845L6.18108 11.1804L6.18405 11.1869L6.43865 11.7502L3.53642 14.8459C3.32774 15.0685 3.26242 15.3898 3.36759 15.6762C3.47277 15.9626 3.73046 16.1652 4.0336 16.1999L6.67894 16.5022C9.98778 16.8803 13.3289 16.8803 16.6378 16.5022L19.2831 16.1999C19.726 16.1492 20.044 15.7492 19.9934 15.3063C19.9428 14.8634 19.5427 14.5454 19.0998 14.5961L16.4545 14.8984C13.2674 15.2626 10.0493 15.2626 6.86224 14.8984L5.81242 14.7784L7.94255 12.5063C7.96315 12.4843 7.98229 12.4615 7.99996 12.4379L8.81011 12.5433C9.94537 12.691 11.0929 12.72 12.2342 12.6297C14.8961 12.4192 17.3631 11.1526 19.0854 9.11219L19.7075 8.37521C19.7284 8.35046 19.7478 8.32448 19.7656 8.2974L20.925 6.5305C21.7468 5.2781 20.8484 3.61401 19.3504 3.61401Z" fill="#FD8B8B"/>
<path d="M5.73947 17.8731C4.84795 17.8731 4.12523 18.5958 4.12523 19.4874C4.12523 20.3789 4.84795 21.1016 5.73947 21.1016C6.63099 21.1016 7.3537 20.3789 7.3537 19.4874C7.3537 18.5958 6.63099 17.8731 5.73947 17.8731Z" fill="#FD8B8B"/>
<path d="M15.963 19.4874C15.963 18.5958 16.6857 17.8731 17.5772 17.8731C18.4687 17.8731 19.1915 18.5958 19.1915 19.4874C19.1915 20.3789 18.4687 21.1016 17.5772 21.1016C16.6857 21.1016 15.963 20.3789 15.963 19.4874Z" fill="#FD8B8B"/>
</svg>
