<svg width="50" height="50" viewBox="0 0 50 50" fill="none" xmlns="http://www.w3.org/2000/svg">
<path d="M49.0745 25.1185C49.0745 38.5804 38.1614 49.4935 24.6995 49.4935C11.2375 49.4935 0.324463 38.5804 0.324463 25.1185C0.324463 11.6565 11.2375 0.743469 24.6995 0.743469C38.1614 0.743469 49.0745 11.6565 49.0745 25.1185ZM7.50924 25.1185C7.50924 34.6124 15.2056 42.3087 24.6995 42.3087C34.1934 42.3087 41.8897 34.6124 41.8897 25.1185C41.8897 15.6246 34.1934 7.92825 24.6995 7.92825C15.2056 7.92825 7.50924 15.6246 7.50924 25.1185Z" fill="#EEEEEF"/>
<mask id="path-2-inside-1_1_68" fill="white">
<path d="M45.5119 25.1185C47.4795 25.1185 49.1011 26.7218 48.8146 28.6684C48.4606 31.0728 47.7481 33.4175 46.695 35.6226C45.1285 38.9028 42.8482 41.7911 40.0211 44.076C37.194 46.3609 33.8916 47.9846 30.3559 48.8281C27.9789 49.3952 25.5369 49.6 23.1117 49.4417C21.1483 49.3135 19.9208 47.3916 20.3336 45.4679C20.7463 43.5441 22.6489 42.3587 24.6164 42.3682C25.9881 42.3748 27.3599 42.2178 28.7024 41.8975C31.2047 41.3005 33.5417 40.1515 35.5424 38.5345C37.5431 36.9175 39.1569 34.8735 40.2655 32.5522C40.8602 31.3067 41.3015 29.9983 41.5828 28.6558C41.9863 26.73 43.5444 25.1185 45.5119 25.1185Z"/>
</mask>
<path d="M45.5119 25.1185C47.4795 25.1185 49.1011 26.7218 48.8146 28.6684C48.4606 31.0728 47.7481 33.4175 46.695 35.6226C45.1285 38.9028 42.8482 41.7911 40.0211 44.076C37.194 46.3609 33.8916 47.9846 30.3559 48.8281C27.9789 49.3952 25.5369 49.6 23.1117 49.4417C21.1483 49.3135 19.9208 47.3916 20.3336 45.4679C20.7463 43.5441 22.6489 42.3587 24.6164 42.3682C25.9881 42.3748 27.3599 42.2178 28.7024 41.8975C31.2047 41.3005 33.5417 40.1515 35.5424 38.5345C37.5431 36.9175 39.1569 34.8735 40.2655 32.5522C40.8602 31.3067 41.3015 29.9983 41.5828 28.6558C41.9863 26.73 43.5444 25.1185 45.5119 25.1185Z" stroke="#8DDD2B" stroke-width="30.5882" stroke-linecap="round" mask="url(#path-2-inside-1_1_68)"/>
</svg>
