<svg width="50" height="49" viewBox="0 0 50 49" fill="none" xmlns="http://www.w3.org/2000/svg">
<path d="M49.0281 24.3817C49.0281 37.8437 38.115 48.7567 24.6531 48.7567C11.1911 48.7567 0.278076 37.8437 0.278076 24.3817C0.278076 10.9198 11.1911 0.00674438 24.6531 0.00674438C38.115 0.00674438 49.0281 10.9198 49.0281 24.3817ZM7.46285 24.3817C7.46285 33.8756 15.1592 41.572 24.6531 41.572C34.147 41.572 41.8433 33.8756 41.8433 24.3817C41.8433 14.8878 34.147 7.19152 24.6531 7.19152C15.1592 7.19152 7.46285 14.8878 7.46285 24.3817Z" fill="#EEEEEF"/>
<mask id="path-2-inside-1_1_57" fill="white">
<path d="M45.4655 24.3817C47.4331 24.3817 49.0548 25.9852 48.7682 27.9317C48.132 32.2539 46.3415 36.3492 43.5558 39.771C40.0162 44.1187 35.086 47.1134 29.596 48.2503C24.1061 49.3872 18.392 48.5969 13.4168 46.0124C8.44161 43.428 4.50939 39.2075 2.28281 34.0622C0.0562285 28.9169 -0.32858 23.1613 1.19323 17.7654C2.71504 12.3695 6.05043 7.66307 10.6373 4.43935C15.2242 1.21562 20.7822 -0.32835 26.3746 0.0676135C30.776 0.379245 34.9869 1.87748 38.5732 4.37243C40.1883 5.49605 40.2471 7.77584 38.9002 9.21011C37.5533 10.6444 35.3119 10.6769 33.6319 9.65282C31.2945 8.22794 28.636 7.37065 25.8714 7.1749C21.9137 6.89468 17.9804 7.98734 14.7343 10.2687C11.4882 12.5501 9.12777 15.8808 8.0508 19.6994C6.97383 23.5181 7.24616 27.5912 8.82188 31.2325C10.3976 34.8738 13.1804 37.8606 16.7013 39.6896C20.2222 41.5185 24.266 42.0778 28.1511 41.2733C32.0363 40.4687 35.5254 38.3494 38.0303 35.2725C39.7801 33.1232 40.975 30.5984 41.5364 27.9191C41.9399 25.9934 43.498 24.3817 45.4655 24.3817Z"/>
</mask>
<path d="M45.4655 24.3817C47.4331 24.3817 49.0548 25.9852 48.7682 27.9317C48.132 32.2539 46.3415 36.3492 43.5558 39.771C40.0162 44.1187 35.086 47.1134 29.596 48.2503C24.1061 49.3872 18.392 48.5969 13.4168 46.0124C8.44161 43.428 4.50939 39.2075 2.28281 34.0622C0.0562285 28.9169 -0.32858 23.1613 1.19323 17.7654C2.71504 12.3695 6.05043 7.66307 10.6373 4.43935C15.2242 1.21562 20.7822 -0.32835 26.3746 0.0676135C30.776 0.379245 34.9869 1.87748 38.5732 4.37243C40.1883 5.49605 40.2471 7.77584 38.9002 9.21011C37.5533 10.6444 35.3119 10.6769 33.6319 9.65282C31.2945 8.22794 28.636 7.37065 25.8714 7.1749C21.9137 6.89468 17.9804 7.98734 14.7343 10.2687C11.4882 12.5501 9.12777 15.8808 8.0508 19.6994C6.97383 23.5181 7.24616 27.5912 8.82188 31.2325C10.3976 34.8738 13.1804 37.8606 16.7013 39.6896C20.2222 41.5185 24.266 42.0778 28.1511 41.2733C32.0363 40.4687 35.5254 38.3494 38.0303 35.2725C39.7801 33.1232 40.975 30.5984 41.5364 27.9191C41.9399 25.9934 43.498 24.3817 45.4655 24.3817Z" stroke="#8DDD2B" stroke-width="30.5882" stroke-linecap="round" mask="url(#path-2-inside-1_1_57)"/>
</svg>
